<svg xmlns="http://www.w3.org/2000/svg" viewBox="0 0 119.82 41.05"><defs><style>.cls-1{fill:#009c77;}</style></defs><title>Asset 1</title><g id="Layer_2" data-name="Layer 2"><g id="Layer_1-2" data-name="Layer 1"><path class="cls-1" d="M3.23,30.47h13.2L25.65.2h11.7L28.63,29.09S32,29.65,35,25.5c0,0-3.66,13.55-16.84,14.89H0Z"/><path class="cls-1" d="M34,40.27,46.25.12H59.79s4.27,1.22,5.86,13.18c0,0,8.17-10.62,13.11-13.12h13l-12,40.21H67.23l8.55-26.84L60.53,31.48H57.72L54.18,12.2,45.64,40.27Z"/><path class="cls-1" d="M96,0h12l-7.81,26.48s-1,4.57,4.57,4.57c0,0,13.37.31,15.07-1.4L117,39.9S82.85,46.73,88,27.09Z"/></g></g></svg>