<?xml version="1.0" standalone="no"?>
<!DOCTYPE svg PUBLIC "-//W3C//DTD SVG 20010904//EN"
 "http://www.w3.org/TR/2001/REC-SVG-20010904/DTD/svg10.dtd">
<svg version="1.0" xmlns="http://www.w3.org/2000/svg"
 width="256.000000pt" height="256.000000pt" viewBox="0 0 256.000000 256.000000"
 preserveAspectRatio="xMidYMid meet">
<metadata>
Created by potrace 1.11, written by Peter Selinger 2001-2013
</metadata>
<g transform="translate(0.000000,256.000000) scale(0.100000,-0.100000)"
fill="#000000" stroke="none">
<path d="M460 1417 l-96 -292 -141 -3 -141 -3 -31 -89 c-17 -49 -31 -94 -31
-100 0 -7 71 -10 213 -10 239 0 271 6 365 68 72 47 162 169 162 218 0 15 -5
13 -27 -8 -16 -14 -38 -31 -50 -37 -55 -28 -54 -19 32 239 46 137 86 263 90
280 l7 30 -129 0 -128 0 -95 -293z"/>
<path d="M864 1328 c-70 -211 -129 -389 -132 -395 -3 -10 26 -13 126 -13 l131
0 82 253 c46 138 86 255 89 259 3 5 21 -71 40 -167 l34 -175 36 1 c32 0 46 13
180 159 79 87 146 158 147 156 1 -1 -35 -110 -81 -242 l-83 -239 135 -3 c74
-1 137 0 140 2 5 6 252 767 252 778 0 5 -64 8 -142 8 -172 0 -170 1 -310 -140
-94 -94 -108 -101 -108 -55 0 31 -44 129 -72 161 l-30 34 -153 0 -153 0 -128
-382z"/>
<path d="M1966 1478 c-121 -377 -120 -372 -87 -445 25 -53 98 -97 191 -114 69
-12 379 -8 411 5 15 6 69 164 69 201 0 13 -4 14 -22 4 -13 -7 -87 -14 -177
-17 -149 -4 -157 -3 -183 18 -16 12 -28 30 -28 41 0 11 38 136 84 279 l83 260
-133 0 -133 0 -75 -232z"/>
</g>
</svg>
